<svg xmlns="http://www.w3.org/2000/svg" xmlns:xlink="http://www.w3.org/1999/xlink" version="1.1" id="Layer_1" x="0px" y="0px" style="enable-background:new 0 0 1000 1000;" xml:space="preserve" viewBox="216.69 203.07 562.95 595.63">
<style type="text/css">
	.st0{fill:#4D4D4D;}
	.st1{fill:#EF4141;}
</style>
<g>
	<g>
		<path class="st0" d="M726.1,583.5c20.7-20.9,38.1-43.5,47.8-71.8c12.1-34.5,3.6-54-11.7-54c-13.8,0-33.3,16.4-47.1,52.3    c-9.2,23.4-17.4,56.1-22.1,89.3c-8.1,10.7-27.2,37.8-34.9,44.6c-3.6,3.1-6.7,5-9.3,5c-3.8,0-6.4-4.5-6.2-17.1    c0.2-7.6,0.7-15.2,0.7-18.8c3.3-1.7,5-1.2,11.7-5.7c26.4-18.3,22.4-56.8,3.8-56.8c-5.9,0-13.6,3.8-21.9,13.6    c-8.9,10.2-14.6,23.2-17.4,36.4c-10.8,13.6-24.6,50.1-31.1,66.4c-2.4,6.2-4,9.5-5.2,9.5c-1,0-1.4-3.3-1.4-10.5    c0-24.5,5.2-62.1,4-84.2c-0.7-10.7-6.4-16.9-13.1-16.9c-4.5,0-9.5,2.9-13.8,8.6c-6.7,8.8-12.6,18.6-15.5,22.6    c-0.5,0.7-0.7,1-1,1.2l2.4-28.5c0.5-3.3,3.3-5,6.9-8.6c13.3-13.3,24.5-29,34.5-45c30.4-49.2,20.5-87.3-1.2-87.3    c-11.9,0-27.1,11.2-41.4,38.1c-18.8,35.6-26.2,86.6-28,128.9c-21.8,28.1-46.7,57.4-70,80.4c-17.8,17.8-33.5,25.2-46.6,25.2    c-35,0-50.9-53.8-40.9-103.9c8.3-41.4,35.4-105.4,74.2-131c9.8-6.4,17.6-9,24-9c13.6,0,19,12.1,14,24    c-3.8,9.8-17.6,16.9-28.5,16.9c-3.8,0-7.4-1-10-2.9c-1.2-1-2.4-1.2-3.3-1.2c-4.3,0-7.4,5-2.9,8.8c5.9,4.8,12.8,6.9,19.7,6.9    c13.1,0,26.6-7.1,33.8-16.4c23.1-29,1.2-56.1-31.4-56.1c-11.7,0-24.7,3.3-37.6,11.4c-58.5,36.9-88,120.3-88,177.2    c0,55.4,27.1,93.2,64.9,93.2c20.7,0,44.5-11.2,69-36.6c19.9-20.6,43.1-48.6,59.1-70.2c-0.1,9.5,0.1,18.4,0.5,26.2    c0.7,11.7,5.7,20.2,10.7,20.2c2.4,0,4.8-2.1,6.4-7.4c5-15,1.7-14.5,10.5-34.5c2.4-5.2,18.8-35.4,22.1-35.4c1.9,0,0,9.3-1.7,21.6    c-2.1,17.6-3.8,43.8-0.5,61.6c2.4,13.6,10.2,24.5,17.8,24.5c5,0,10-4.3,13.8-15c7.4-20,13.4-35.5,22.2-52.8    c-0.2,23.4,8.3,43.1,23,43.1c6.2,0,13.3-3.3,21.2-11.2c7.3-7.2,20.3-24.6,29.7-37.9c-2,18.4-2.9,36.6-2.1,52.9    c0.7,17.8,9,78.2,34,78.2c9.8,0,18.6-10.9,21.6-31.4c2.6-18.1-1.2-50.4-25-64.5c11.2-6.9,33.5-25.2,44.2-45.4    c1.9-3.8-0.7-6.4-3.1-6.4c-1.2,0-2.1,0.5-2.9,1.7c-9.8,17.6-28.3,34.5-37.8,39.5c1.4-15.9,2.9-34.7,4.3-50.2    C724.9,584.9,724,585.9,726.1,583.5z M736.8,511.2c8.3-29.7,18.8-42.1,26.2-42.1c8.1,0,11.7,15.9,2.4,40.7    c-8.6,21.9-27.1,51.6-38.5,59.5C728.5,551.1,733.2,524.7,736.8,511.2z M658.8,562.1c3.8,0,6.4,6.4,6.4,11.2    c0,8.3-2.4,14.5-5.9,19.3c-2.6,3.8-9.8,10-15,11.2C644.3,596.6,649.5,562.1,658.8,562.1z M550.6,517.4c1.7-12.4,3.8-25.4,7.4-37.6    c8.8-29.5,20-41.6,28.1-41.6c13.3,0,18.8,32.1-7.1,72.8c-5,7.6-26.4,35.2-32.6,41.4L550.6,517.4z M736.1,700    c1.2,13.3-5,30.9-10.7,30.9c-2.6,0-5.2-4.3-6.9-15.5c-2.4-16.2-1.7-37.1-0.5-53.8C731.1,667.9,735.1,687.2,736.1,700z"/>
	</g>
	<g>
		<path class="st1" d="M286.2,422.1c5.1,4.8,11.2,7.8,18,8.7c-3.8,16.7-4.6,33.5-2.4,50.6c0.6,4.8,5.8,7.5,9.7,4    c47.3-43,107.9-69.5,171.6-74.9c4.2-0.4,7.2-4.6,4.9-8.5c-15.7-27.2-23-57.5-21.5-88.8c0.1-1.5-0.4-2.7-1.2-3.6    c9.8-6.7,17.4-16.2,19.7-28.8c4.6-25.2-13.8-48.7-33.1-62.4c-10.7-7.6-23.4-13.5-36.5-15c-16.3-1.9-27.4,4.8-41.1,12.3    c-27.1,14.8-58.5-1.1-86.4,10.9c-9.3,4-16.8,10.6-20.8,20c-6,14.1-1.6,31.1-9,44.5c-6,10.9-19.8,16.1-27.5,25.9    c-7.2,9.2-11.6,20.3-13.2,31.8c-3.3,23.6,4.9,49.4,24.8,63.7C254.8,421.4,271.2,425.1,286.2,422.1z M229.1,346.1    c1.9-9,5.9-17.7,12-24.6c7.1-8,17.4-12.4,23.9-21c13.1-17.1,2.4-43.6,18.4-58.5c17.5-16.3,46.7-7.2,67.7-8.4    c10.4-0.6,19.7-3.3,28.8-8.4c13.8-7.7,24.7-13.7,41-9.5c22.7,5.8,46.9,25.5,52.5,49c5.9,25.1-15.9,39.9-37.2,45    c-1.9,0.5-4,0.8-6,1c4.4-11.3,6.1-23.3,4.9-35.6c-0.6-6.4-10.8-6.5-10.1,0c1.3,12.8-0.7,25-6.1,36.5c-5.4,0.5-10.7,1.2-15.3,3.4    c-7.1,3.4-11,9.9-13.4,17.2c-1.4,4.1-2.2,8.3-3.2,12.5c-8.3-0.1-16.2-2.8-22.8-8.2c-5-4.1-12.2,3-7.2,7.2c7.8,6.5,17,10.3,26.8,11    c-1.6,3.8-3.8,7.3-7.3,10.3c-12.6,11.1-30.4,8.7-41.6-3c-5-5.3-13,2.7-8,8c17.2,18,46.1,18.1,62-1.7c7.2-9,8.2-19.6,11.4-30.3    c2.7-9.3,6.5-13.2,16.5-14.1c6.5-0.6,13-1.2,19.5-2.5c6.4-1.3,12.8-3.4,18.9-6.1c-1.1,29.6,5.5,58.6,19,84.9    c-59.7,6.9-116,31.1-161.9,69.7c-0.7-14.5,0.8-28.7,4.7-42.9c0.9-3.3-1.7-7.4-5.5-7.2c-4.6,0.3-8.6-0.4-12.2-2.2    c4.2-2.2,8.1-5.1,11.6-8.7c5-5.3-3-13.3-8-8c-4.4,4.6-9.8,7.7-15.6,9.4c-0.2,0.1-0.5,0.1-0.7,0.2c-14.3,3.9-30.8-0.4-42-10.6    C230,386.5,225.1,364.9,229.1,346.1z"/>
	</g>
	<g>
		<path class="st1" d="M657.4,719.8l-64.1-0.5c-6.5-0.1-11.9,5.2-11.9,11.8l-0.2,24l-101.1-0.8l0-0.3c0-2.3-1.9-4.2-4.2-4.2    l-150-1.2c-2.2,0-3.9,1.7-4,3.9l-0.1,9.9c0,2.2,1.7,3.9,3.9,4l149.3,1.2c2.5,0,4.6-1.9,4.9-4.4l101.2,0.8l-0.2,22.3    c-0.1,6.5,5.2,11.9,11.8,11.9l64.1,0.5c13.2,0.1,24.1-10.5,24.2-23.8l0.2-30.9C681.3,730.7,670.7,719.9,657.4,719.8z M335.8,763.3    c-3.2,0-5.8-2.7-5.8-5.9c0-3.2,2.7-5.8,5.9-5.8c3.2,0,5.8,2.7,5.8,5.9C341.7,760.7,339,763.3,335.8,763.3z M661.4,788.5    c0,0.9-0.8,1.6-1.7,1.6l-67.7-0.5c-0.9,0-1.6-0.8-1.6-1.7l0-0.6c0-0.9,0.8-1.6,1.7-1.6l67.7,0.5c0.9,0,1.6,0.8,1.6,1.7    L661.4,788.5z M661.5,779.8c0,0.9-0.8,1.6-1.7,1.6l-67.7-0.5c-0.9,0-1.6-0.8-1.6-1.7l0-0.6c0-0.9,0.8-1.6,1.7-1.6l67.7,0.5    c0.9,0,1.6,0.8,1.6,1.7L661.5,779.8z M661.6,770.4c0,0.9-0.8,1.6-1.7,1.6l-67.7-0.5c-0.9,0-1.6-0.8-1.6-1.7l0-0.6    c0-0.9,0.8-1.6,1.7-1.6l67.7,0.5c0.9,0,1.6,0.8,1.6,1.7L661.6,770.4z M661.6,760.6c0,0.9-0.8,1.6-1.7,1.6l-67.7-0.5    c-0.9,0-1.6-0.8-1.6-1.7l0-0.6c0-0.9,0.8-1.6,1.7-1.6l67.7,0.5c0.9,0,1.6,0.8,1.6,1.7L661.6,760.6z M661.7,750.6    c0,0.9-0.8,1.6-1.7,1.6l-67.7-0.5c-0.9,0-1.6-0.8-1.6-1.7l0-0.6c0-0.9,0.8-1.6,1.7-1.6l67.7,0.5c0.9,0,1.6,0.8,1.6,1.7    L661.7,750.6z M661.8,740.6c0,0.9-0.8,1.6-1.7,1.6l-67.7-0.5c-0.9,0-1.6-0.8-1.6-1.7l0-0.6c0-0.9,0.8-1.6,1.7-1.6l67.7,0.5    c0.9,0,1.6,0.8,1.6,1.7L661.8,740.6z M661.9,730.8c0,0.9-0.8,1.6-1.7,1.6l-67.7-0.5c-0.9,0-1.6-0.8-1.6-1.7l0-0.6    c0-0.9,0.8-1.6,1.7-1.6l67.7,0.5c0.9,0,1.6,0.8,1.6,1.7L661.9,730.8z"/>
	</g>
	<g>
		
			<ellipse transform="matrix(0.7435 -0.6688 0.6688 0.7435 -298.2469 339.985)" class="st0" cx="294.1" cy="558.8" rx="24.3" ry="24.3"/>
	</g>
	<g>
		<path class="st0" d="M607.3,397c1.2-16,4.2-20.9,17.9-29.3c-16-1.2-20.9-4.2-29.3-17.9c-1.2,16-4.2,20.9-17.9,29.3    C594,380.3,598.9,383.3,607.3,397z"/>
	</g>
	<g>
		<path class="st0" d="M693.4,491c6.4,0,6.4-10,0-10C686.9,481,686.9,491,693.4,491z"/>
	</g>
	<g>
		<path class="st0" d="M649.6,473.1c6.4,0,6.4-10,0-10C643.2,463.1,643.1,473.1,649.6,473.1z"/>
	</g>
	<g>
		<path class="st0" d="M679.4,441.2c6.4,0,6.4-10,0-10C673,431.2,673,441.2,679.4,441.2z"/>
	</g>
	<g>
		<path class="st0" d="M501.6,725.3c-6.4,0-6.4,10,0,10C508,735.3,508,725.3,501.6,725.3z"/>
	</g>
	<g>
		<path class="st0" d="M545.3,707.4c-6.4,0-6.4,10,0,10C551.8,717.4,551.8,707.4,545.3,707.4z"/>
	</g>
	<g>
		<path class="st0" d="M515.5,675.5c-6.4,0-6.4,10,0,10C521.9,685.5,521.9,675.5,515.5,675.5z"/>
	</g>
	<g>
		<path class="st0" d="M296.3,662.8c-3.2,0-3.2,5,0,5C299.5,667.8,299.5,662.8,296.3,662.8z"/>
	</g>
	<g>
		<path class="st0" d="M509.1,443c3.2,0,3.2-5,0-5C505.9,438,505.9,443,509.1,443z"/>
	</g>
	<g>
		<path class="st0" d="M272.4,468.9c3.2,0,3.2-5,0-5C269.2,463.9,269.2,468.9,272.4,468.9z"/>
	</g>
</g>
</svg>